<svg width="40" height="40" viewBox="0 0 40 40" fill="none" xmlns="http://www.w3.org/2000/svg">
<path d="M20 40C31.0457 40 40 31.0457 40 20C40 8.9543 31.0457 0 20 0C8.9543 0 0 8.9543 0 20C0 31.0457 8.9543 40 20 40Z" fill="url(#paint0_linear_1834_199)"/>
<path d="M28.7523 27.9691L21.9895 11.6186C21.608 10.7732 21.041 10.3608 20.2936 10.3608H19.6956C18.9482 10.3608 18.3812 10.7732 17.9998 11.6186L15.0565 18.7423H12.8297C12.1647 18.7474 11.6235 19.2835 11.6183 19.9536V19.9691C11.6235 20.634 12.1647 21.1753 12.8297 21.1804H14.0255L11.2163 27.9691C11.1647 28.1186 11.1338 28.2732 11.1338 28.433C11.1338 28.8144 11.2523 29.1134 11.4637 29.3454C11.675 29.5773 11.9792 29.6907 12.3606 29.6907C12.6132 29.6856 12.8554 29.6083 13.0565 29.4588C13.273 29.3093 13.4224 29.0928 13.541 28.8454L16.6338 21.1753H18.7781C19.4431 21.1701 19.9843 20.634 19.9895 19.9639V19.933C19.9843 19.2681 19.4431 18.7268 18.7781 18.7217H17.6338L19.9946 12.8402L26.4276 28.8402C26.5462 29.0876 26.6956 29.3041 26.9121 29.4536C27.1132 29.6031 27.3606 29.6804 27.608 29.6856C27.9895 29.6856 28.2884 29.5722 28.5049 29.3402C28.7214 29.1083 28.8348 28.8093 28.8348 28.4279C28.84 28.2732 28.8142 28.1134 28.7523 27.9691Z" fill="white"/>
<defs>
<linearGradient id="paint0_linear_1834_199" x1="34.9117" y1="7.45291" x2="5.15171" y2="32.4929" gradientUnits="userSpaceOnUse">
<stop stop-color="#B6509E"/>
<stop offset="1" stop-color="#2EBAC6"/>
</linearGradient>
</defs>
</svg>
