<svg width="40" height="40" viewBox="0 0 40 40" fill="none" xmlns="http://www.w3.org/2000/svg">
<path fill-rule="evenodd" clip-rule="evenodd" d="M20 0C31.04 0 40 8.96 40 20C40 31.04 31.04 40 20 40C8.96 40 0 31.04 0 20C0 8.96 8.96 0 20 0Z" fill="#CF1011"/>
<path fill-rule="evenodd" clip-rule="evenodd" d="M20.0002 15.2642C22.6082 15.2642 24.7362 17.3762 24.7362 20.0002C24.7362 22.6082 22.6242 24.7362 20.0002 24.7362C17.3922 24.7362 15.2642 22.6242 15.2642 20.0002C15.2642 17.3922 17.3762 15.2642 20.0002 15.2642Z" fill="white"/>
<path fill-rule="evenodd" clip-rule="evenodd" d="M20.1122 7.6161C21.6002 7.6321 23.0722 7.9201 24.4482 8.4481C25.8242 8.9761 27.1042 9.7441 28.2242 10.7361L28.2562 10.7681C30.8002 13.0401 32.1922 16.1121 32.3682 19.2641C32.5602 22.4321 31.5362 25.6641 29.2802 28.2241L29.2482 28.2561C26.9762 30.8001 23.9042 32.1921 20.7522 32.3681C17.5842 32.5601 14.3522 31.5361 11.7922 29.2801C9.23222 27.0081 7.82422 23.9201 7.64822 20.7521C7.45622 17.5841 8.48022 14.3521 10.7362 11.7921L11.8082 12.7361C9.80822 14.9921 8.91222 17.8561 9.07222 20.6561C9.24822 23.4561 10.4802 26.1921 12.7362 28.1921C14.9922 30.1921 17.8562 31.0881 20.6562 30.9281C23.4562 30.7521 26.1922 29.5201 28.1922 27.2641L28.2242 27.2321C30.2082 24.9761 31.1042 22.1281 30.9282 19.3441C30.7522 16.5441 29.5202 13.8081 27.2642 11.8081L27.2322 11.7761C26.2562 10.9121 25.1362 10.2401 23.9362 9.7761C22.7202 9.3121 21.4242 9.0561 20.1122 9.0401L20.1282 7.6001L20.1122 7.6161Z" fill="white"/>
<path d="M12.9604 7.69604C13.8244 7.69604 14.5924 8.04804 15.1524 8.60804C15.7124 9.16805 16.0644 9.95204 16.0644 10.8C16.0644 11.664 15.7124 12.432 15.1524 12.992C14.5924 13.552 13.8084 13.904 12.9604 13.904C12.0964 13.904 11.3284 13.552 10.7684 12.992C10.2084 12.432 9.85645 11.648 9.85645 10.8C9.85645 9.93604 10.2084 9.16805 10.7684 8.60804C11.3284 8.04804 12.1124 7.69604 12.9604 7.69604ZM14.1444 9.63205C13.8404 9.32805 13.4244 9.13604 12.9604 9.13604C12.4964 9.13604 12.0804 9.32805 11.7764 9.63205C11.4724 9.93604 11.2804 10.352 11.2804 10.816C11.2804 11.28 11.4724 11.696 11.7764 12C12.0804 12.304 12.4964 12.496 12.9604 12.496C13.4244 12.496 13.8404 12.304 14.1444 12C14.4484 11.696 14.6404 11.28 14.6404 10.816C14.6404 10.352 14.4484 9.93604 14.1444 9.63205Z" fill="white"/>
</svg>
