<svg width="40" height="40" viewBox="0 0 40 40" fill="none" xmlns="http://www.w3.org/2000/svg">
<rect width="40" height="40" rx="20" fill="#F69625"/>
<path d="M28.2834 25.6206C28.9864 21.6337 26.4065 19.7726 20.8642 18.2188C16.9175 17.0542 16.2788 16.004 16.5601 14.4084C16.8415 12.8127 18.3679 12.0271 21.0489 12.4998C22.0272 12.5408 22.9746 12.8858 23.7134 13.47C24.4522 14.0543 24.9314 14.8375 25.0615 15.6729C25.1015 15.8498 25.2034 16.015 25.3533 16.1462C25.5031 16.2774 25.6941 16.3684 25.8999 16.4067L28.0445 16.7849C28.1681 16.8092 28.2948 16.8121 28.4169 16.7933C28.539 16.7745 28.654 16.7346 28.7548 16.6757C28.8557 16.6167 28.9401 16.5401 29.0034 16.4505C29.0667 16.361 29.1074 16.2605 29.123 16.1548L29.1431 16.0412C29.1011 14.7613 28.5668 13.5053 27.6229 12.4683C26.6789 11.4313 25.3785 10.6714 23.9236 10.3068L24.4046 7.57917C24.4847 7.12457 24.1426 6.71278 23.4924 6.48094L21.4761 6.12541C20.9399 6.03086 20.4779 6.30087 20.2436 6.84549L19.7819 9.46397C18.0483 9.21621 16.3061 9.53369 14.904 10.3528C13.5019 11.1718 12.5429 12.4322 12.2189 13.8819C11.5568 17.637 13.9767 19.5918 19.5227 21.1556C23.1759 22.3857 24.2721 23.2866 23.9514 25.1051C23.6308 26.9235 21.5273 27.8464 18.975 27.3964C15.4843 26.7809 14.4932 25.3171 14.3924 23.5368C14.385 23.3421 14.2997 23.1516 14.1508 22.9973C14.0018 22.843 13.798 22.7342 13.5741 22.6893L11.29 22.2866C11.1664 22.2622 11.0397 22.2594 10.9176 22.2781C10.7956 22.2969 10.6805 22.337 10.5797 22.3959C10.4788 22.4548 10.3944 22.5315 10.3311 22.621C10.2678 22.7106 10.227 22.8113 10.2114 22.9169L10.1914 23.0304C10.1809 24.5447 10.7901 26.0445 11.914 27.27C13.0378 28.4954 14.6052 29.3693 16.3447 29.7403L15.8637 32.4679C15.7836 32.9225 16.1257 33.3344 16.7759 33.5662L18.7919 33.9217C19.3281 34.0163 19.7904 33.7462 20.0247 33.2015L20.5056 30.474C22.3266 30.6578 24.1251 30.265 25.5591 29.3701C26.9931 28.4753 27.9628 27.1408 28.2834 25.6206Z" fill="white"/>
</svg>
