<svg width="40" height="40" viewBox="0 0 40 40" fill="none" xmlns="http://www.w3.org/2000/svg">
<rect width="40" height="40" rx="20" fill="black"/>
<path fill-rule="evenodd" clip-rule="evenodd" d="M19.9618 35C24.4179 35 28.4213 33.0668 31.175 29.9953C29.8941 28.8848 27.9636 28.8173 26.5999 29.9149L26.3394 30.1246C23.8424 32.1343 20.2041 31.8375 18.0677 29.4499C16.9025 28.1477 14.9069 28.0147 13.5784 29.1508L10.5746 31.7194C13.1474 33.7724 16.4108 35 19.9618 35ZM24.8376 27.7365C27.2159 25.8223 30.5588 25.8909 32.8462 27.7397C34.2134 25.4801 35 22.8317 35 20C35 16.8535 34.0288 13.9333 32.3689 11.5214C31.2989 11.2941 30.1391 11.5596 29.2587 12.3378L29.0082 12.5592C26.6069 14.6818 22.9587 14.5528 20.7141 12.266C19.4899 11.0189 17.4903 10.9779 16.2158 12.1739L12.7202 15.4541L10.7973 13.4154L14.2928 10.1352C16.6803 7.89474 20.426 7.97145 22.7193 10.3077C23.9175 11.5285 25.8651 11.5973 27.147 10.4643L27.3975 10.2428C28.1756 9.55498 29.076 9.09131 30.0185 8.84745C27.3543 6.45562 23.8285 5 19.9618 5C12.3278 5 6.02238 10.6738 5.05281 18.0244C7.37156 16.9145 10.2317 17.3416 12.1223 19.2727C13.3159 20.4919 15.2377 20.6205 16.5839 19.5715L18.5383 18.0485C20.9946 16.1344 24.4668 16.2271 26.8169 18.2694L30.622 21.5761L28.7785 23.6866L24.9735 20.38C23.6371 19.2186 21.6627 19.1659 20.266 20.2543L18.3116 21.7773C15.8382 23.7047 12.3074 23.4683 10.1145 21.2284C8.83938 19.9259 6.75388 19.8805 5.42294 21.1262L5 21.522C5.31651 24.655 6.59956 27.5034 8.54719 29.7661L11.7519 27.0257C14.2405 24.8976 17.9787 25.1466 20.1614 27.586C21.3019 28.8606 23.2441 29.019 24.5771 27.9462L24.8376 27.7365Z" fill="white"/>
</svg>
