<svg width="40" height="40" viewBox="0 0 40 40" fill="none" xmlns="http://www.w3.org/2000/svg">
<rect width="40" height="40" rx="20" fill="#0088CC"/>
<path fill-rule="evenodd" clip-rule="evenodd" d="M13.1632 10H26.8595C27.3829 10 27.8191 10.0873 28.3425 10.3493C28.9532 10.6114 29.3021 11.048 29.4766 11.3974C29.4766 11.3974 29.4766 11.4847 29.5638 11.4847C29.8255 11.9214 30 12.4454 30 13.0568C30 13.5808 29.9128 14.1048 29.5638 14.6288L20.9273 29.476C20.7529 29.8253 20.4039 30 19.9677 30C19.6188 30 19.2698 29.8253 19.0081 29.476L10.5461 14.6288C10.3716 14.2795 10.0227 13.8428 10.0227 13.1441C9.93546 12.5328 10.1099 12.0087 10.3716 11.4847C10.6334 10.9607 11.0695 10.524 11.6802 10.3493C12.2036 10 12.8143 10 13.1632 10ZM18.9209 12.0961H13.1632C12.8143 12.0961 12.6398 12.0961 12.5526 12.1834C12.3781 12.2707 12.2909 12.3581 12.2036 12.5328C12.1164 12.6201 12.1164 12.7948 12.1164 12.9694C12.1164 13.0568 12.2036 13.1441 12.3781 13.4934L18.9209 24.8472V12.0961ZM21.0146 12.0961V24.9345L27.6446 13.4934C27.7318 13.3188 27.7318 13.1441 27.7318 12.9694C27.7318 12.7948 27.7318 12.6201 27.6446 12.5328C27.5574 12.4454 27.5574 12.3581 27.4701 12.3581L27.3829 12.2707C27.2084 12.1834 27.0339 12.1834 26.7722 12.1834H21.0146V12.0961Z" fill="white"/>
</svg>
