<svg width="24" height="24" viewBox="0 0 24 24" fill="none" xmlns="http://www.w3.org/2000/svg">
<path d="M21.7008 14.419C20.3651 19.7762 14.9385 23.0365 9.58005 21.7006C4.22386 20.365 0.96321 14.9387 2.29952 9.58197C3.63466 4.22419 9.06124 0.963662 14.418 2.29923C19.7761 3.63481 23.0365 9.06171 21.7006 14.4191L21.7007 14.419H21.7008Z" fill="#F7931A"/>
<path d="M16.4241 10.5606C16.6232 9.22985 15.6099 8.5145 14.2243 8.0373L14.6738 6.23464L13.5763 5.96121L13.1388 7.71641C12.8503 7.64446 12.554 7.57666 12.2595 7.50945L12.7002 5.74267L11.6035 5.46924L11.1537 7.27131C10.915 7.21696 10.6805 7.16324 10.453 7.10664L10.4542 7.10097L8.94081 6.72308L8.64887 7.89511C8.64887 7.89511 9.46309 8.08173 9.44593 8.09321C9.89034 8.20412 9.97071 8.49828 9.95736 8.73143L9.44535 10.7851C9.47595 10.7929 9.51564 10.8041 9.55944 10.8217C9.52283 10.8126 9.48387 10.8027 9.44344 10.793L8.72576 13.6699C8.67145 13.8049 8.5336 14.0075 8.22289 13.9306C8.23389 13.9465 7.42524 13.7315 7.42524 13.7315L6.88037 14.9876L8.30853 15.3436C8.57422 15.4102 8.83458 15.4799 9.09098 15.5455L8.63684 17.3688L9.73303 17.6422L10.1828 15.8383C10.4822 15.9195 10.7729 15.9945 11.0574 16.0652L10.6091 17.8607L11.7067 18.1341L12.1607 16.3142C14.0321 16.6683 15.4393 16.5255 16.0316 14.8331C16.5088 13.4704 16.0078 12.6844 15.0233 12.1719C15.7404 12.0065 16.2805 11.5349 16.4245 10.5608L16.4242 10.5605L16.4241 10.5606ZM13.9167 14.0763C13.5775 15.439 11.283 14.7024 10.539 14.5176L11.1417 12.102C11.8856 12.2877 14.2711 12.6552 13.9167 14.0763H13.9167ZM14.2561 10.5409C13.9467 11.7804 12.0369 11.1507 11.4174 10.9962L11.9638 8.80543C12.5833 8.95984 14.5784 9.24803 14.2562 10.5409H14.2561Z" fill="white"/>
</svg>
