<svg width="168" height="168" viewBox="0 0 168 168" fill="none" xmlns="http://www.w3.org/2000/svg">
<rect width="168" height="168" rx="84" fill="white"/>
<g clip-path="url(#clip0_2733_15275)">
<path d="M84.0001 24C50.8422 24 24 50.8422 24 84.0001C24 117.158 50.8422 144 84.0001 144C117.158 144 144 117.158 144 84.0001C144 50.8422 117.158 24 84.0001 24ZM84.0001 132.34C57.2794 132.34 35.6599 110.721 35.6599 84.0001C35.6599 79.3848 37.9676 68.6965 54.4859 68.6965C71.0041 68.6965 85.7003 84.7288 105.498 87.0367C112.178 87.887 117.523 87.7651 121.53 87.2797C127.361 86.5506 132.098 92.1378 130.397 97.8463C124.446 117.766 105.984 132.34 84.0001 132.34Z" fill="url(#paint0_linear_2733_15275)"/>
</g>
<path fill-rule="evenodd" clip-rule="evenodd" d="M84 167C129.84 167 167 129.84 167 84C167 38.1604 129.84 1 84 1C38.1604 1 1 38.1604 1 84C1 129.84 38.1604 167 84 167ZM84 168C130.392 168 168 130.392 168 84C168 37.6081 130.392 0 84 0C37.6081 0 0 37.6081 0 84C0 130.392 37.6081 168 84 168Z" fill="#D5D9DD"/>
<defs>
<linearGradient id="paint0_linear_2733_15275" x1="1.15887" y1="84.3006" x2="79.4278" y2="164.701" gradientUnits="userSpaceOnUse">
<stop stop-color="#FFE480"/>
<stop offset="0.458483" stop-color="#FF43C3"/>
<stop offset="0.979531" stop-color="#4156E0"/>
</linearGradient>
<clipPath id="clip0_2733_15275">
<rect width="120" height="120" fill="white" transform="translate(24 24)"/>
</clipPath>
</defs>
</svg>
