<svg width="26" height="27" viewBox="0 0 26 27" fill="none" xmlns="http://www.w3.org/2000/svg">
<path d="M13 25.0049C19.6274 25.0049 25 19.6323 25 13.0049C25 6.37747 19.6274 1.00488 13 1.00488C6.37258 1.00488 1 6.37747 1 13.0049C1 19.6323 6.37258 25.0049 13 25.0049Z" fill="white"/>
<path fill-rule="evenodd" clip-rule="evenodd" d="M9.68964 10.6616L12.7548 6.17587L15.8241 10.6616L12.7548 12.335L9.68964 10.6616ZM12.7548 4.50244L17.1775 10.9701L12.7548 13.3738L8.33661 10.9701L12.7548 4.50244Z" fill="#00A3FF"/>
<path d="M12.7502 14.7954L7.62007 12.0049L7.48058 12.2092C5.90414 14.5216 6.25748 17.5467 8.33166 19.4854C10.7688 21.763 14.7267 21.763 17.1683 19.4854C19.2425 17.5468 19.5959 14.5216 18.0194 12.2092L17.8754 12.0049L12.7502 14.7954Z" fill="#00A3FF"/>
<rect x="0.5" y="0.504883" width="25" height="25" rx="12.5" stroke="#222937"/>
</svg>
