<svg width="50" height="50" viewBox="0 0 50 50" fill="none" xmlns="http://www.w3.org/2000/svg">
<g clip-path="url(#clip0_4622_33397)">
<path d="M50 25.0454C50 11.5091 38.8071 0.535645 25 0.535645C11.1929 0.535645 0 11.5091 0 25.0454C0 38.5818 11.1929 49.5553 25 49.5553C38.8071 49.5553 50 38.5818 50 25.0454Z" fill="url(#paint0_radial_4622_33397)"/>
<mask id="mask0_4622_33397" style="mask-type:luminance" maskUnits="userSpaceOnUse" x="6" y="6" width="38" height="38">
<path d="M43.5283 6.90234H6.49609V43.2084H43.5283V6.90234Z" fill="white"/>
</mask>
<g mask="url(#mask0_4622_33397)">
<path fill-rule="evenodd" clip-rule="evenodd" d="M27.3247 11.015C27.3114 11.0362 27.327 11.0534 27.3593 11.0534C27.3916 11.0534 27.4289 11.0362 27.4423 11.015C27.4556 10.9939 27.44 10.9766 27.4077 10.9766C27.3754 10.9766 27.338 10.9939 27.3247 11.015ZM23.6019 16.0864C23.5588 16.1045 23.4703 16.1205 23.4054 16.1221C23.3404 16.1235 23.198 16.1568 23.0887 16.1959C22.9796 16.235 22.7834 16.2789 22.6528 16.2934C22.5221 16.3078 22.3167 16.3536 22.1964 16.3951C22.076 16.4366 21.9342 16.4705 21.8812 16.4705C21.8282 16.4705 21.7351 16.489 21.6745 16.5118C21.4162 16.6081 20.4264 16.748 20.0599 16.7398C19.9099 16.7366 19.7767 16.7653 19.599 16.8393C19.2843 16.9705 18.9466 16.9293 18.9018 16.7545C18.8592 16.5879 18.6662 16.697 18.0615 17.2294C15.1856 19.7607 13.8932 23.981 14.7893 27.915C15.0413 29.0209 15.6131 30.2966 16.1081 30.8569L16.2424 31.0089L16.5839 31.017C17.0151 31.0272 17.0091 31.0482 16.7612 30.3937C15.7834 27.8111 15.5807 26.0364 16.0223 23.9266C16.6535 20.9121 18.6445 18.3652 21.4787 16.947C22.0978 16.6371 23.1848 16.2803 23.5137 16.2789C23.573 16.2786 23.6568 16.2438 23.6999 16.2016C23.8355 16.0686 23.7849 16.0092 23.6019 16.0864ZM17.3449 16.3522C17.3378 16.3717 17.1996 16.4487 17.038 16.5234C16.8763 16.598 16.6471 16.7119 16.5286 16.7762C16.41 16.8405 16.2809 16.8931 16.2416 16.8931C16.2024 16.8931 16.1439 16.9189 16.1118 16.9504C16.0701 16.9914 15.962 17.0084 15.7326 17.0101C15.5561 17.0115 15.3508 17.0135 15.2763 17.0147C15.1756 17.0165 15.1201 16.9913 15.0591 16.9165L14.9774 16.8159L14.837 16.9602C14.2606 17.5526 13.4184 19.1052 12.9561 20.4276C11.8861 23.4885 11.979 27.3796 13.185 30.0132C13.5604 30.833 13.8479 31.2212 14.0349 31.1601C14.0808 31.1451 14.2594 31.1316 14.4314 31.1301C14.8319 31.1267 14.8293 31.1913 14.4739 30.106C12.7569 24.862 13.5344 20.8094 17.0263 16.8015C17.3488 16.4313 17.431 16.3169 17.3743 16.3169C17.3654 16.3169 17.3522 16.3327 17.3449 16.3522ZM13.3888 16.818C13.3109 16.8574 13.1793 16.9543 13.0966 17.0329C12.9256 17.1959 12.6432 17.2353 12.2197 17.1553C11.9641 17.1071 11.9481 17.1213 11.633 17.6799C9.68982 21.1229 9.42139 26.689 11.024 30.3084C11.3884 31.1316 11.6177 31.416 11.8595 31.345C11.9431 31.3204 12.1197 31.3003 12.2518 31.3003H12.4922V31.1683C12.4922 31.0957 12.4053 30.7629 12.2991 30.4287C10.6642 25.2839 10.9667 21.7854 13.4516 17.0984C13.6011 16.8163 13.5799 16.7214 13.3888 16.818ZM20.0994 20.2178C18.4783 20.5546 18.2552 20.6837 17.8105 21.5423C16.3437 24.3749 16.4266 27.9914 18.0123 30.3436C18.6188 31.2433 18.819 31.1545 18.4535 30.1477C17.1127 26.4542 17.8742 22.7869 20.4571 20.4984C20.9194 20.0888 20.8778 20.0562 20.0994 20.2178ZM18.7146 25.5086C18.645 25.6282 18.6465 27.1734 18.7168 27.5928C18.8759 28.5426 19.2087 29.4454 19.6766 30.1958C19.9351 30.6103 19.9592 30.5432 19.7835 29.898C19.4524 28.682 19.3721 27.1094 19.5851 26.0126C19.7049 25.3956 19.7224 25.4222 19.1959 25.4222C18.7901 25.4222 18.762 25.4272 18.7146 25.5086ZM19.0366 33.9261C19.0366 34.6028 21.8464 36.2386 23.8039 36.7015C24.4273 36.8489 24.5301 36.8621 24.1983 36.7521C22.6813 36.2489 21.3418 35.5396 19.8664 34.4581C19.0163 33.8349 19.0366 33.8479 19.0366 33.9261ZM16.8486 34.4406C16.8642 34.6172 16.806 34.6371 16.59 34.5289C15.9746 34.2209 17.317 35.5264 18.39 36.2794C21.3167 38.3336 25.3896 39.1582 29.105 38.4489C29.5411 38.3657 29.7599 38.2617 29.4016 38.3079C27.8067 38.5139 25.8613 38.4694 24.4052 38.1935C21.8289 37.7056 19.2098 36.3695 17.1285 34.4815C16.8812 34.2571 16.8319 34.2499 16.8486 34.4406ZM14.4234 34.6331C14.4343 34.8152 14.2937 34.8494 14.0764 34.7178C13.6746 34.4744 14.0591 35.0042 14.9277 35.8911C19.1849 40.2374 25.8802 41.5867 31.8509 39.3015C33.799 38.5559 35.5495 37.4283 37.2324 35.8354C37.4658 35.6144 37.6946 35.381 37.7408 35.3168C37.7869 35.2524 37.4972 35.5043 37.0971 35.8765C32.2511 40.3838 24.8544 41.2016 18.821 37.8972C17.5607 37.2069 16.3604 36.3006 15.1021 35.089C14.4179 34.4303 14.411 34.4256 14.4234 34.6331Z" fill="white"/>
<path fill-rule="evenodd" clip-rule="evenodd" d="M24.9539 10.7462C16.2477 11.7931 10.5676 19.6568 12.431 28.0838C13.2927 31.9812 16.5486 35.8532 20.4278 37.594C24.4022 39.3774 29.9736 39.1863 33.1882 37.1565C33.3526 37.0527 33.5466 36.9345 33.6193 36.8938C33.8241 36.7792 33.66 36.7709 33.4314 36.8843C29.5997 38.7844 24.8642 38.7805 20.9568 36.8743C16.4576 34.6792 13.8934 30.7027 13.7181 25.6486C13.4926 19.1459 19.0499 13.3659 25.5339 13.3596C26.065 13.3591 26.0851 13.3466 26.4979 12.7638C26.6871 12.4967 27.0696 11.9732 27.3479 11.6005C27.8747 10.8951 27.9116 10.8192 27.7656 10.74C27.6076 10.6546 25.681 10.6588 24.9539 10.7462ZM16.9559 11.0978C16.1656 11.5982 15.0281 12.5793 14.2001 13.4745C9.54258 18.5102 8.46551 26.2013 11.6335 31.8003C11.7232 31.9589 11.9031 32.2783 12.0332 32.5102C15.6957 39.0366 23.8024 42.1234 31.0171 39.7388C34.1951 38.6885 37.4038 36.4149 38.9855 34.0928C39.285 33.6531 39.1136 33.4531 38.7742 33.8462C38.6785 33.9571 38.4363 34.2381 38.236 34.4705C33.442 40.0361 25.5233 41.395 18.9386 37.7821C16.3027 36.3358 13.8433 33.7913 12.8636 31.4969C10.0171 24.8304 11.5742 17.8292 16.8325 13.6509C17.4849 13.1324 17.4299 13.2773 17.4299 12.0778C17.4299 10.781 17.4361 10.7937 16.9559 11.0978ZM27.4423 11.0156C27.429 11.0367 27.3917 11.0541 27.3593 11.0541C27.327 11.0541 27.3114 11.0367 27.3248 11.0156C27.3381 10.9945 27.3754 10.9772 27.4077 10.9772C27.4401 10.9772 27.4557 10.9945 27.4423 11.0156ZM24.9343 13.8606C17.6478 14.5565 12.7599 21.6906 14.8481 28.5819C15.5219 30.8055 17.5011 33.4192 19.6636 34.9411C21.8517 36.4811 24.7066 37.3749 27.0068 37.2404C27.7491 37.197 27.7109 37.1372 26.8937 37.0637C18.9768 36.3514 13.933 29.0208 16.6908 22.2346C17.8158 19.4661 20.2513 17.3441 23.1303 16.624C23.9171 16.4271 23.8183 16.4992 24.3568 15.7311C24.6123 15.3669 24.9922 14.8319 25.2011 14.5423C25.5993 13.9901 25.6285 13.9248 25.5051 13.8599C25.4223 13.8166 25.3956 13.8166 24.9343 13.8606ZM23.7783 16.0869C23.7783 16.1632 23.6192 16.2791 23.5138 16.2796C23.1849 16.2808 22.0978 16.6377 21.4788 16.9475C18.6445 18.3657 16.6535 20.9127 16.0224 23.9272C15.5808 26.037 15.7835 27.8117 16.7613 30.3944C17.0091 31.0489 17.0151 31.0278 16.584 31.0176L16.2424 31.0096L16.1081 30.8575C15.6132 30.2972 15.0413 29.0215 14.7894 27.9156C13.8933 23.9816 15.1857 19.7612 18.0615 17.23C18.6663 16.6976 18.8593 16.5886 18.9019 16.7551C18.9467 16.9299 19.2844 16.971 19.599 16.8399C19.7768 16.7659 19.91 16.7372 20.06 16.7404C20.4265 16.7487 21.4163 16.6088 21.6745 16.5123C21.7352 16.4897 21.8282 16.4711 21.8812 16.4711C21.9342 16.4711 22.0761 16.4372 22.1965 16.3957C22.3168 16.3543 22.5221 16.3085 22.6528 16.2941C22.7834 16.2796 22.9797 16.2356 23.0888 16.1965C23.198 16.1574 23.3405 16.1242 23.4054 16.1227C23.4704 16.1211 23.5588 16.1051 23.602 16.0869C23.7102 16.0413 23.7783 16.0413 23.7783 16.0869ZM17.3907 16.3507C17.3907 16.369 17.2267 16.5721 17.0264 16.8021C15.4496 18.6118 14.5651 20.185 14.0264 22.138C13.3207 24.696 13.4488 26.9752 14.4739 30.1066C14.8293 31.1919 14.832 31.1273 14.4315 31.1307C14.2595 31.1322 14.0809 31.1457 14.0349 31.1607C13.848 31.2218 13.5605 30.8337 13.185 30.0139C11.979 27.3802 11.8862 23.4892 12.9562 20.4283C13.4185 19.1058 14.2606 17.5533 14.8371 16.9608L14.9775 16.8165L15.0592 16.9171C15.1201 16.9919 15.1757 17.0171 15.2764 17.0153C15.3508 17.0142 15.5562 17.0121 15.7326 17.0107C15.9621 17.009 16.0701 16.992 16.1119 16.951C16.144 16.9195 16.2025 16.8938 16.2417 16.8938C16.2809 16.8938 16.4101 16.8411 16.5286 16.7768C16.6472 16.7125 16.8764 16.5987 17.038 16.5241C17.1997 16.4494 17.3378 16.3723 17.345 16.3528C17.3615 16.3082 17.3907 16.3068 17.3907 16.3507ZM13.4517 17.099C10.9667 21.786 10.6643 25.2846 12.2992 30.4294C12.4054 30.7636 12.4923 31.0963 12.4923 31.169V31.3009H12.2519C12.1197 31.3009 11.9432 31.321 11.8595 31.3455C11.6177 31.4165 11.3885 31.1322 11.024 30.3091C9.42149 26.6897 9.68992 21.1236 11.633 17.6804C11.9482 17.1219 11.9641 17.1077 12.2197 17.1559C12.6433 17.2358 12.9256 17.1965 13.0967 17.0336C13.4735 16.6748 13.6585 16.709 13.4517 17.099ZM20.0359 20.0833C19.1376 20.2658 18.2569 20.5714 18.0894 20.7585C17.7662 21.1201 17.1328 22.6247 16.9024 23.5787C16.1049 26.8793 17.0586 30.0612 19.6241 32.6593C20.5195 33.5659 22.1104 34.6818 22.5079 34.6818C22.621 34.6818 22.5503 34.6165 22.0824 34.289C19.8643 32.7365 18.7336 31.1362 18.1794 28.7652C17.4431 25.6157 18.191 22.9399 20.4167 20.76C20.8277 20.3575 21.0738 20.0883 21.0661 20.0493C21.0459 19.9451 20.6517 19.9583 20.0359 20.0833ZM20.7609 20.1755C20.7609 20.2054 20.6242 20.3511 20.4572 20.4991C17.8743 22.7874 17.1128 26.4549 18.4536 30.1484C18.7554 30.9799 18.7437 31.141 18.4045 30.8191C16.9878 29.4738 16.3745 26.1486 17.0585 23.521C17.3154 22.5342 17.9069 21.1803 18.2193 20.8645C18.5127 20.5677 20.7609 19.9583 20.7609 20.1755ZM18.7582 25.3093C18.5891 25.3745 18.5564 25.505 18.5366 26.1912C18.498 27.536 18.76 28.7253 19.3487 29.8767C19.8485 30.8541 20.5435 31.67 20.2925 30.9847C19.7662 29.5477 19.6334 28.9221 19.5968 27.7065C19.573 26.9145 19.612 26.4376 19.7471 25.8722C19.8308 25.5216 19.824 25.3702 19.7228 25.3322C19.605 25.288 18.8595 25.2701 18.7582 25.3093ZM19.6513 25.485C19.6647 25.5193 19.6349 25.7569 19.5851 26.0133C19.3722 27.11 19.4525 28.6826 19.7835 29.8986C19.9593 30.5439 19.9352 30.6109 19.6766 30.1964C19.2087 29.446 18.8759 28.5433 18.7168 27.5935C18.6466 27.1741 18.645 25.6288 18.7147 25.5093C18.7813 25.3949 19.6076 25.3736 19.6513 25.485ZM19.8665 34.4588C21.3418 35.5401 22.6813 36.2495 24.1984 36.7527C24.5301 36.8627 24.4273 36.8496 23.804 36.7021C21.8465 36.2393 19.0366 34.6035 19.0366 33.9267C19.0366 33.8486 19.0163 33.8355 19.8665 34.4588ZM17.1286 34.4821C20.0281 37.1124 23.3968 38.4281 27.2268 38.4262C28.2502 38.4257 28.6697 38.4031 29.4017 38.3086C29.76 38.2623 29.5411 38.3663 29.1051 38.4496C25.0726 39.2194 20.8673 38.2377 17.7448 35.7977C17.2106 35.3802 16.3588 34.528 16.418 34.4701C16.4279 34.4604 16.5053 34.4871 16.59 34.5296C16.8061 34.6377 16.8643 34.6178 16.8487 34.4412C16.8319 34.2505 16.8813 34.2578 17.1286 34.4821ZM15.1022 35.0897C16.3605 36.3011 17.5607 37.2075 18.8211 37.8978C24.8545 41.2022 32.2511 40.3845 37.0971 35.8771C37.4973 35.5049 37.787 35.2531 37.7408 35.3174C37.6336 35.4666 36.9101 36.152 36.4649 36.5259C35.1943 37.5929 34.2414 38.2151 32.9338 38.8315C26.7838 41.7307 19.4787 40.538 14.9278 35.8917C14.0591 35.0049 13.6747 34.475 14.0765 34.7185C14.2937 34.85 14.4343 34.8158 14.4235 34.6338C14.411 34.4262 14.418 34.4309 15.1022 35.0897Z" fill="white"/>
</g>
</g>
<defs>
<radialGradient id="paint0_radial_4622_33397" cx="0" cy="0" r="1" gradientUnits="userSpaceOnUse" gradientTransform="translate(25 0.535645) rotate(90) scale(31.8627 32.5)">
<stop stop-color="#E477FA"/>
<stop offset="1" stop-color="#90192B"/>
</radialGradient>
<clipPath id="clip0_4622_33397">
<rect width="50" height="50" fill="white"/>
</clipPath>
</defs>
</svg>
