<svg width="40" height="40" viewBox="0 0 40 40" fill="none" xmlns="http://www.w3.org/2000/svg">
<rect width="40" height="40" rx="20" fill="black"/>
<path d="M12.5165 11.4712H18.3066V8.10059H10.333C10.1771 8.10058 10.0227 8.13128 9.87864 8.19095C9.73458 8.25062 9.60368 8.33808 9.49341 8.44835C9.38315 8.55861 9.29569 8.68951 9.23602 8.83357C9.17635 8.97764 9.14565 9.13204 9.14565 9.28798V11.4712H9.14681L9.14643 18.2891H7.375V21.6597H9.14604L9.14565 28.631V30.8141C9.14563 30.9701 9.17633 31.1245 9.23599 31.2685C9.29565 31.4126 9.38311 31.5435 9.49338 31.6538C9.60364 31.764 9.73455 31.8515 9.87862 31.9112C10.0227 31.9708 10.1771 32.0015 10.333 32.0015H18.3066V28.631H12.5157L12.5165 11.4712Z" fill="white"/>
<path d="M32.6253 21.6597V18.2891H30.8609L30.8612 11.369V9.18593C30.8613 9.02999 30.8306 8.87558 30.7709 8.7315C30.7112 8.58743 30.6238 8.45652 30.5135 8.34626C30.4032 8.23599 30.2723 8.14853 30.1283 8.08887C29.9842 8.02921 29.8298 7.99851 29.6738 7.99854H21.7007V11.369H27.4912L27.49 28.5288H21.7007V31.8995H29.6738C29.8298 31.8995 29.9842 31.8688 30.1283 31.8091C30.2723 31.7494 30.4032 31.662 30.5135 31.5517C30.6237 31.4414 30.7112 31.3105 30.7709 31.1665C30.8305 31.0224 30.8612 30.868 30.8612 30.7121V28.5288H30.8601L30.8605 21.6597H32.6253Z" fill="white"/>
<path d="M24.9116 19.8727C24.9116 18.893 24.6211 17.9351 24.0768 17.1205C23.5325 16.3058 22.7588 15.6708 21.8536 15.2958C20.9484 14.9209 19.9523 14.8227 18.9914 15.0139C18.0304 15.205 17.1477 15.6768 16.4549 16.3697C15.762 17.0625 15.2902 17.9452 15.0991 18.9062C14.9079 19.8671 15.0061 20.8632 15.381 21.7684C15.756 22.6736 16.391 23.4473 17.2057 23.9916C18.0204 24.5359 18.9782 24.8264 19.958 24.8264C21.2713 24.8249 22.5304 24.3025 23.459 23.3738C24.3877 22.4452 24.9101 21.1861 24.9116 19.8727ZM19.958 21.66C19.6045 21.66 19.2589 21.5552 18.965 21.3588C18.6711 21.1624 18.442 20.8833 18.3067 20.5567C18.1715 20.2301 18.1361 19.8708 18.205 19.5241C18.274 19.1774 18.4442 18.8589 18.6942 18.609C18.9441 18.359 19.2626 18.1888 19.6093 18.1198C19.956 18.0509 20.3153 18.0862 20.6419 18.2215C20.9685 18.3568 21.2476 18.5859 21.444 18.8798C21.6404 19.1737 21.7452 19.5193 21.7452 19.8727C21.7446 20.3466 21.5562 20.8008 21.2211 21.1359C20.8861 21.471 20.4318 21.6594 19.958 21.66Z" fill="white"/>
</svg>
