<svg width="40" height="40" viewBox="0 0 40 40" fill="none" xmlns="http://www.w3.org/2000/svg">
<rect width="40" height="40" rx="20" fill="#FEA101"/>
<path d="M23.4106 10C29.259 10 34 14.4772 34 20C34 25.5228 29.259 30 23.4106 30C23.1538 30 22.8992 29.9914 22.647 29.9744L6 29.2857L21.4203 27.999L16.976 27.9427C15.6748 27.0012 14.6116 25.781 13.8866 24.3765L9.40373 23.9286L13.4903 23.506C13.0578 22.415 12.8212 21.2336 12.8212 20C12.8212 18.7667 13.0576 17.5856 13.49 16.4948L9.40373 16.0714L13.8867 15.6232C14.6118 14.2187 15.6751 12.9984 16.9765 12.0569L21.4203 12L6 10.7143L22.5953 10.0292C22.8644 10.0099 23.1363 10 23.4106 10ZM23.4106 16.25C21.2175 16.25 19.4396 17.9289 19.4396 20C19.4396 22.0711 21.2175 23.75 23.4106 23.75C25.6038 23.75 27.3816 22.0711 27.3816 20C27.3816 17.9289 25.6038 16.25 23.4106 16.25Z" fill="white"/>
</svg>
