<svg width="40" height="40" viewBox="0 0 40 40" fill="none" xmlns="http://www.w3.org/2000/svg">
<rect width="40" height="40" rx="20" fill="black"/>
<mask id="mask0_1884_56" style="mask-type:luminance" maskUnits="userSpaceOnUse" x="6" y="6" width="28" height="28">
<path d="M33.572 6.42822H6.42822V33.572H33.572V6.42822Z" fill="white"/>
</mask>
<g mask="url(#mask0_1884_56)">
<mask id="mask1_1884_56" style="mask-type:luminance" maskUnits="userSpaceOnUse" x="6" y="6" width="28" height="28">
<path d="M33.572 6.42822H6.42822V33.572H33.572V6.42822Z" fill="white"/>
</mask>
<g mask="url(#mask1_1884_56)">
<path d="M22.6957 7.50174L23.4193 9.20552C24.843 12.5197 27.4803 15.1804 30.8179 16.6041L32.5216 17.3277C32.9651 17.5144 33.3152 17.7944 33.5953 18.1212C32.755 12.0763 27.9705 7.29168 21.9255 6.45146C22.2289 6.7082 22.509 7.05829 22.6957 7.50174ZM7.50174 17.3043L9.20552 16.5808C12.5197 15.1571 15.1804 12.5197 16.6041 9.18218L17.3277 7.4784C17.491 7.05829 17.7711 6.68486 18.1212 6.40479C12.0763 7.24501 7.29169 12.0296 6.45147 18.0745C6.7082 17.7711 7.05829 17.491 7.50174 17.3043ZM32.4983 22.6957L30.7945 23.4193C27.4803 24.843 24.8196 27.4803 23.3959 30.8179L22.6724 32.4983C22.509 32.9184 22.2289 33.2918 21.8788 33.5719C27.9238 32.7317 32.7084 27.9471 33.5486 21.9022C33.2918 22.2523 32.9184 22.5324 32.4983 22.6957ZM17.3043 32.4983L16.5808 30.8179C15.1571 27.5037 12.5197 24.843 9.18218 23.4193L7.4784 22.6957C7.05829 22.5324 6.68486 22.2523 6.40479 21.9022C7.24501 27.9471 12.0296 32.7317 18.0745 33.5719C17.7478 33.2918 17.491 32.9184 17.3043 32.4983Z" fill="#999999"/>
</g>
<path d="M13.8503 18.6814L14.6905 18.3313C16.3243 17.6311 17.6313 16.3241 18.3315 14.6903L18.6816 13.8501C19.1717 12.6831 20.8288 12.6831 21.3423 13.8501L21.6924 14.6903C22.3926 16.3241 23.6996 17.6311 25.3333 18.3313L26.1736 18.6814C27.3405 19.1715 27.3405 20.8286 26.1736 21.3421L25.3333 21.6921C23.6996 22.3923 22.3926 23.6993 21.6924 25.3331L21.3423 26.1733C20.8522 27.3403 19.1951 27.3403 18.6816 26.1733L18.3315 25.3331C17.6313 23.6993 16.3243 22.3923 14.6905 21.6921L13.8503 21.3421C12.6834 20.8286 12.6834 19.1715 13.8503 18.6814Z" fill="white"/>
</g>
</svg>
