<svg width="40" height="40" viewBox="0 0 40 40" fill="none" xmlns="http://www.w3.org/2000/svg">
<mask id="mask0_1677_60" style="mask-type:luminance" maskUnits="userSpaceOnUse" x="0" y="0" width="40" height="40">
<path d="M40 0H0V40H40V0Z" fill="white"/>
</mask>
<g mask="url(#mask0_1677_60)">
<path d="M20 40C31.0457 40 40 31.0457 40 20C40 8.95431 31.0457 0 20 0C8.95431 0 0 8.95431 0 20C0 31.0457 8.95431 40 20 40Z" fill="black"/>
<path d="M32.9601 15.5C33.8401 18.94 16.5001 27.44 8.64011 29.46C0.780108 31.48 23.8401 21.52 22.9401 18.08C22.0401 14.64 3.66011 17.46 11.5201 15.44C19.3801 13.42 32.0801 12.06 32.9601 15.5Z" fill="url(#paint0_linear_1677_60)"/>
</g>
<defs>
<linearGradient id="paint0_linear_1677_60" x1="17.7241" y1="13.838" x2="20.9401" y2="26.282" gradientUnits="userSpaceOnUse">
<stop stop-color="#00FF8F"/>
<stop offset="0.43" stop-color="#53FDB2"/>
<stop offset="1" stop-color="#68FCBB"/>
</linearGradient>
</defs>
</svg>
