<svg width="50" height="50" viewBox="0 0 50 50" fill="none" xmlns="http://www.w3.org/2000/svg">
<g clip-path="url(#clip0_4685_32849)">
<path d="M42 21.1239C42 9.75331 32.598 0.535645 21 0.535645C9.40202 0.535645 0 9.75331 0 21.1239C0 32.4944 9.40202 41.7121 21 41.7121C32.598 41.7121 42 32.4944 42 21.1239Z" fill="url(#paint0_radial_4685_32849)"/>
<mask id="mask0_4685_32849" style="mask-type:luminance" maskUnits="userSpaceOnUse" x="5" y="5" width="32" height="32">
<path d="M36.5631 5.88184H5.45605V36.3789H36.5631V5.88184Z" fill="white"/>
</mask>
<g mask="url(#mask0_4685_32849)">
<path fill-rule="evenodd" clip-rule="evenodd" d="M22.9555 9.33648C22.9444 9.35427 22.9575 9.36876 22.9846 9.36876C23.0117 9.36876 23.0431 9.35427 23.0543 9.33648C23.0655 9.31878 23.0524 9.3042 23.0253 9.3042C22.9981 9.3042 22.9667 9.31878 22.9555 9.33648ZM19.8284 13.5964C19.7922 13.6117 19.7178 13.6251 19.6633 13.6264C19.6087 13.6276 19.4891 13.6556 19.3973 13.6884C19.3057 13.7213 19.1409 13.7582 19.0312 13.7704C18.9214 13.7825 18.7488 13.8209 18.6478 13.8558C18.5466 13.8906 18.4275 13.9191 18.383 13.9191C18.3385 13.9191 18.2603 13.9347 18.2094 13.9538C17.9924 14.0347 17.161 14.1522 16.8531 14.1453C16.7271 14.1426 16.6152 14.1667 16.466 14.2289C16.2016 14.3391 15.9179 14.3045 15.8803 14.1577C15.8445 14.0178 15.6824 14.1093 15.1745 14.5566C12.7587 16.6829 11.6731 20.2279 12.4258 23.5325C12.6375 24.4614 13.1178 25.533 13.5336 26.0036L13.6464 26.1314L13.9333 26.1381C14.2955 26.1467 14.2904 26.1644 14.0822 25.6146C13.2609 23.4452 13.0906 21.9544 13.4615 20.1822C13.9917 17.65 15.6642 15.5106 18.0449 14.3193C18.5649 14.059 19.478 13.7593 19.7543 13.7582C19.8041 13.7579 19.8745 13.7287 19.9107 13.6932C20.0246 13.5815 19.9821 13.5316 19.8284 13.5964ZM14.5725 13.8197C14.5666 13.8361 14.4505 13.9008 14.3147 13.9636C14.1789 14.0262 13.9864 14.1218 13.8868 14.1759C13.7872 14.2299 13.6788 14.2741 13.6457 14.2741C13.6128 14.2741 13.5637 14.2958 13.5367 14.3222C13.5017 14.3566 13.4109 14.371 13.2182 14.3724C13.0699 14.3735 12.8975 14.3752 12.8349 14.3762C12.7503 14.3777 12.7037 14.3566 12.6524 14.2937L12.5838 14.2092L12.4659 14.3304C11.9817 14.8281 11.2743 16.1322 10.8859 17.2431C9.98712 19.8142 10.0652 23.0828 11.0782 25.295C11.3935 25.9836 11.635 26.3097 11.7921 26.2584C11.8307 26.2458 11.9807 26.2344 12.1252 26.2332C12.4616 26.2303 12.4594 26.2846 12.1609 25.3729C10.7186 20.9679 11.3717 17.5638 14.3049 14.1971C14.5758 13.8862 14.6448 13.79 14.5972 13.79C14.5897 13.79 14.5786 13.8034 14.5725 13.8197ZM11.2494 14.211C11.184 14.2441 11.0734 14.3255 11.0039 14.3916C10.8603 14.5284 10.6231 14.5615 10.2673 14.4943C10.0526 14.4538 10.0392 14.4658 9.77452 14.935C8.14226 17.8272 7.91678 22.5027 9.26296 25.543C9.56905 26.2344 9.76166 26.4733 9.96478 26.4137C10.035 26.393 10.1833 26.3761 10.2943 26.3761H10.4962V26.2653C10.4962 26.2043 10.4232 25.9248 10.334 25.644C8.96072 21.3224 9.21482 18.3836 11.3021 14.4466C11.4277 14.2096 11.4099 14.1298 11.2494 14.211ZM16.8863 17.0669C15.5246 17.3498 15.3372 17.4582 14.9636 18.1795C13.7315 20.5588 13.8011 23.5966 15.1331 25.5725C15.6426 26.3283 15.8108 26.2537 15.5037 25.408C14.3775 22.3054 15.0171 19.2248 17.1868 17.3026C17.5751 16.9585 17.5401 16.9311 16.8863 17.0669ZM15.7231 21.5111C15.6646 21.6116 15.6659 22.9096 15.7249 23.2619C15.8586 24.0597 16.1381 24.818 16.5311 25.4483C16.7483 25.7965 16.7685 25.7402 16.6209 25.1982C16.3428 24.1767 16.2754 22.8558 16.4543 21.9345C16.5549 21.4162 16.5696 21.4385 16.1274 21.4385C15.7865 21.4385 15.7629 21.4427 15.7231 21.5111ZM15.9935 28.5818C15.9935 29.1503 18.3538 30.5243 19.9981 30.9131C20.5217 31.037 20.6081 31.048 20.3294 30.9556C19.0551 30.533 17.9299 29.9371 16.6906 29.0287C15.9765 28.5052 15.9935 28.5162 15.9935 28.5818ZM14.1556 29.014C14.1687 29.1624 14.1198 29.179 13.9384 29.0882C13.4215 28.8294 14.5491 29.926 15.4504 30.5586C17.9088 32.2841 21.3301 32.9768 24.451 32.381C24.8173 32.3111 25.0011 32.2237 24.7001 32.2625C23.3604 32.4356 21.7263 32.3982 20.5032 32.1664C18.3391 31.7566 16.139 30.6343 14.3907 29.0483C14.183 28.8599 14.1416 28.8538 14.1556 29.014ZM12.1185 29.1757C12.1276 29.3286 12.0095 29.3574 11.827 29.2469C11.4895 29.0424 11.8124 29.4874 12.5421 30.2324C16.1181 33.8833 21.7422 35.0167 26.7576 33.0971C28.394 32.4708 29.8644 31.5237 31.278 30.1856C31.4741 30 31.6663 29.8039 31.7051 29.75C31.7438 29.6959 31.5004 29.9075 31.1644 30.2201C27.0937 34.0063 20.8805 34.6932 15.8124 31.9175C14.7538 31.3376 13.7455 30.5764 12.6886 29.5587C12.1138 29.0053 12.108 29.0014 12.1185 29.1757Z" fill="white"/>
<path fill-rule="evenodd" clip-rule="evenodd" d="M20.9629 9.11376C13.6496 9.99313 8.87836 16.5987 10.4436 23.6773C11.1674 26.9512 13.9024 30.2036 17.1609 31.6659C20.4994 33.164 25.1794 33.0034 27.8797 31.2984C28.0178 31.2112 28.1807 31.1119 28.2418 31.0777C28.4138 30.9814 28.276 30.9745 28.084 31.0697C24.8653 32.6658 20.8875 32.6626 17.6053 31.0613C13.826 29.2174 11.672 25.8772 11.5248 21.6317C11.3354 16.1695 16.0035 11.3143 21.4501 11.309C21.8962 11.3085 21.9131 11.2981 22.2598 10.8085C22.4187 10.5842 22.74 10.1444 22.9738 9.83138C23.4163 9.23885 23.4473 9.17503 23.3247 9.10857C23.192 9.03676 21.5736 9.0403 20.9629 9.11376ZM14.2445 9.40908C13.5807 9.82941 12.6252 10.6535 11.9297 11.4055C8.01733 15.6355 7.11259 22.096 9.77372 26.7992C9.84906 26.9324 10.0002 27.2007 10.1095 27.3955C13.186 32.8777 19.9956 35.4706 26.0559 33.4675C28.7255 32.5853 31.4208 30.6755 32.7494 28.7249C33.001 28.3555 32.857 28.1875 32.5719 28.5178C32.4915 28.6109 32.2881 28.8469 32.1198 29.0422C28.0929 33.7173 21.4411 34.8588 15.91 31.8239C13.6958 30.609 11.6299 28.4716 10.807 26.5443C8.41594 20.9445 9.72391 15.0634 14.1409 11.5537C14.6889 11.1181 14.6427 11.2399 14.6427 10.2323C14.6427 9.143 14.6479 9.15362 14.2445 9.40908ZM23.0531 9.34007C23.0419 9.35777 23.0106 9.37235 22.9834 9.37235C22.9563 9.37235 22.9432 9.35777 22.9544 9.34007C22.9656 9.32228 22.9969 9.30778 23.024 9.30778C23.0513 9.30778 23.0644 9.32228 23.0531 9.34007ZM20.9464 11.7299C14.8257 12.3144 10.7199 18.3071 12.474 24.0957C13.04 25.9636 14.7025 28.159 16.519 29.4375C18.357 30.7311 20.7551 31.4819 22.6873 31.3689C23.3108 31.3324 23.2787 31.2822 22.5923 31.2204C15.9421 30.6221 11.7053 24.4644 14.0218 18.764C14.9668 16.4385 17.0127 14.6559 19.431 14.0511C20.0919 13.8857 20.0089 13.9462 20.4613 13.3011C20.6759 12.9951 20.995 12.5457 21.1705 12.3025C21.505 11.8387 21.5295 11.7837 21.4259 11.7293C21.3563 11.6929 21.3339 11.6929 20.9464 11.7299ZM19.9753 13.5999C19.9753 13.664 19.8417 13.7613 19.7532 13.7618C19.4769 13.7628 18.5637 14.0626 18.0438 14.3228C15.663 15.5141 13.9905 17.6536 13.4604 20.1858C13.0894 21.958 13.2597 23.4488 14.0811 25.6182C14.2892 26.168 14.2943 26.1503 13.9321 26.1417L13.6452 26.135L13.5324 26.0072C13.1167 25.5366 12.6363 24.465 12.4247 23.5361C11.6719 20.2315 12.7576 16.6864 15.1732 14.5602C15.6813 14.1129 15.8434 14.0213 15.8792 14.1613C15.9168 14.3081 16.2005 14.3426 16.4647 14.2325C16.6141 14.1703 16.726 14.1462 16.852 14.1489C17.1598 14.1558 17.9913 14.0383 18.2082 13.9573C18.2591 13.9382 18.3373 13.9227 18.3818 13.9227C18.4263 13.9227 18.5455 13.8942 18.6466 13.8593C18.7477 13.8245 18.9201 13.7861 19.0299 13.7739C19.1396 13.7618 19.3045 13.7249 19.3962 13.692C19.4879 13.6591 19.6076 13.6312 19.6621 13.63C19.7167 13.6287 19.791 13.6153 19.8273 13.5999C19.9181 13.5616 19.9753 13.5616 19.9753 13.5999ZM14.6098 13.8215C14.6098 13.8369 14.472 14.0075 14.3038 14.2007C12.9792 15.7209 12.2363 17.0424 11.7838 18.6828C11.191 20.8316 11.2986 22.7461 12.1597 25.3765C12.4582 26.2881 12.4605 26.2339 12.124 26.2367C11.9796 26.238 11.8295 26.2493 11.7909 26.2619C11.6339 26.3133 11.3924 25.9872 11.077 25.2986C10.0639 23.0863 9.98599 19.8178 10.8848 17.2467C11.2731 16.1358 11.9805 14.8317 12.4647 14.334L12.5827 14.2128L12.6513 14.2973C12.7025 14.3601 12.7492 14.3813 12.8338 14.3798C12.8962 14.3788 13.0688 14.3771 13.217 14.3759C13.4097 14.3745 13.5005 14.3602 13.5356 14.3258C13.5625 14.2993 13.6117 14.2777 13.6446 14.2777C13.6775 14.2777 13.7861 14.2335 13.8856 14.1795C13.9852 14.1254 14.1778 14.0298 14.3135 13.9671C14.4493 13.9044 14.5653 13.8397 14.5714 13.8233C14.5852 13.7858 14.6098 13.7847 14.6098 13.8215ZM11.301 14.4501C9.2136 18.3872 8.95959 21.326 10.3329 25.6476C10.4221 25.9283 10.4951 26.2078 10.4951 26.2689V26.3797H10.2932C10.1821 26.3797 10.0339 26.3966 9.96356 26.4172C9.76045 26.4768 9.56792 26.238 9.26174 25.5465C7.91561 22.5062 8.14109 17.8307 9.7733 14.9385C10.0381 14.4693 10.0514 14.4574 10.2661 14.4979C10.6219 14.565 10.8591 14.532 11.0028 14.3951C11.3193 14.0938 11.4747 14.1225 11.301 14.4501ZM16.8317 16.9569C16.0772 17.1102 15.3374 17.3669 15.1967 17.5241C14.9252 17.8279 14.3931 19.0916 14.1996 19.893C13.5297 22.6655 14.3308 25.3384 16.4858 27.5207C17.238 28.2823 18.5743 29.2197 18.9082 29.2197C19.0032 29.2197 18.9438 29.1648 18.5508 28.8897C16.6876 27.5856 15.7378 26.2414 15.2723 24.2497C14.6538 21.6041 15.282 19.3564 17.1516 17.5254C17.4968 17.1872 17.7036 16.9611 17.6971 16.9283C17.6801 16.8409 17.349 16.8519 16.8317 16.9569ZM17.4407 17.0344C17.4407 17.0595 17.3259 17.1819 17.1856 17.3061C15.016 19.2283 14.3763 22.309 15.5026 25.4116C15.7561 26.1101 15.7463 26.2454 15.4614 25.9749C14.2713 24.8449 13.7562 22.0517 14.3307 19.8446C14.5465 19.0156 15.0434 17.8784 15.3058 17.6131C15.5522 17.3638 17.4407 16.8519 17.4407 17.0344ZM15.7585 21.3467C15.6164 21.4015 15.589 21.5112 15.5723 22.0876C15.5399 23.2172 15.76 24.2162 16.2545 25.1834C16.6743 26.0043 17.2581 26.6898 17.0473 26.114C16.6052 24.907 16.4936 24.3815 16.4629 23.3604C16.4429 22.6951 16.4757 22.2945 16.5891 21.8196C16.6594 21.5251 16.6537 21.3979 16.5687 21.366C16.4698 21.3288 15.8436 21.3139 15.7585 21.3467ZM16.5087 21.4944C16.5199 21.5231 16.4949 21.7227 16.4531 21.9381C16.2742 22.8594 16.3417 24.1803 16.6197 25.2017C16.7674 25.7438 16.7471 25.8001 16.5299 25.4519C16.1369 24.8216 15.8573 24.0633 15.7237 23.2655C15.6647 22.9131 15.6634 21.6151 15.7219 21.5147C15.7779 21.4187 16.472 21.4007 16.5087 21.4944ZM16.6894 29.0323C17.9287 29.9407 19.0539 30.5365 20.3282 30.9592C20.6069 31.0516 20.5205 31.0406 19.9969 30.9167C18.3526 30.5279 15.9923 29.1539 15.9923 28.5854C15.9923 28.5197 15.9753 28.5088 16.6894 29.0323ZM14.3896 29.0519C16.8252 31.2613 19.6549 32.3665 22.8721 32.365C23.7317 32.3646 24.0841 32.3455 24.699 32.2661C25 32.2273 24.8161 32.3146 24.4499 32.3846C21.0626 33.0312 17.5301 32.2066 14.9072 30.157C14.4585 29.8063 13.743 29.0904 13.7927 29.0419C13.801 29.0337 13.866 29.0561 13.9372 29.0918C14.1187 29.1826 14.1676 29.1659 14.1545 29.0176C14.1404 28.8574 14.1819 28.8635 14.3896 29.0519ZM12.6874 29.5622C13.7444 30.5799 14.7526 31.3412 15.8113 31.9211C20.8794 34.6968 27.0925 34.0099 31.1631 30.2237C31.4993 29.9111 31.7427 29.6995 31.7038 29.7535C31.6138 29.8789 31.0061 30.4546 30.6321 30.7687C29.5648 31.665 28.7644 32.1877 27.666 32.7054C22.5 35.1407 16.3637 34.1388 12.5409 30.236C11.8112 29.491 11.4883 29.046 11.8258 29.2505C12.0083 29.361 12.1264 29.3322 12.1173 29.1793C12.1068 29.005 12.1127 29.0089 12.6874 29.5622Z" fill="white"/>
</g>
<rect x="21" y="21" width="29" height="29" rx="14.5" fill="white"/>
<g clip-path="url(#clip1_4685_32849)">
<path d="M35.4997 25.1431C29.776 25.1431 25.1426 29.7765 25.1426 35.5002C25.1426 41.224 29.776 45.8574 35.4997 45.8574C41.2235 45.8574 45.8569 41.224 45.8569 35.5002C45.8569 29.7765 41.2235 25.1431 35.4997 25.1431ZM35.4997 43.8446C30.8872 43.8446 27.1553 40.1127 27.1553 35.5002C27.1553 34.7035 27.5537 32.8585 30.405 32.8585C33.2564 32.8585 35.7932 35.626 39.2107 36.0244C40.3638 36.1712 41.2864 36.1501 41.9782 36.0663C42.9846 35.9405 43.8023 36.905 43.5087 37.8903C42.4814 41.3288 39.2945 43.8446 35.4997 43.8446Z" fill="url(#paint1_linear_4685_32849)"/>
</g>
<path fill-rule="evenodd" clip-rule="evenodd" d="M35.5 49.8274C43.4128 49.8274 49.8274 43.4128 49.8274 35.5C49.8274 27.5872 43.4128 21.1726 35.5 21.1726C27.5872 21.1726 21.1726 27.5872 21.1726 35.5C21.1726 43.4128 27.5872 49.8274 35.5 49.8274ZM35.5 50C43.5081 50 50 43.5081 50 35.5C50 27.4919 43.5081 21 35.5 21C27.4919 21 21 27.4919 21 35.5C21 43.5081 27.4919 50 35.5 50Z" fill="#D5D9DD"/>
</g>
<defs>
<radialGradient id="paint0_radial_4685_32849" cx="0" cy="0" r="1" gradientUnits="userSpaceOnUse" gradientTransform="translate(21 0.535645) rotate(90) scale(26.7647 27.3)">
<stop stop-color="#E477FA"/>
<stop offset="1" stop-color="#90192B"/>
</radialGradient>
<linearGradient id="paint1_linear_4685_32849" x1="21.1998" y1="35.5521" x2="34.7105" y2="49.4308" gradientUnits="userSpaceOnUse">
<stop stop-color="#FFE480"/>
<stop offset="0.458483" stop-color="#FF43C3"/>
<stop offset="0.979531" stop-color="#4156E0"/>
</linearGradient>
<clipPath id="clip0_4685_32849">
<rect width="50" height="50" fill="white"/>
</clipPath>
<clipPath id="clip1_4685_32849">
<rect width="20.7143" height="20.7143" fill="white" transform="translate(25.1426 25.1431)"/>
</clipPath>
</defs>
</svg>
